<mxfile host="app.diagrams.net" agent="Mozilla/5.0 (Windows NT 10.0; Win64; x64) AppleWebKit/537.36 (KHTML, like Gecko) Chrome/138.0.0.0 Safari/537.36" version="28.1.0">
  <diagram name="Page-1" id="QiT0l6Rpd3-K9FJG08Dc">
    <mxGraphModel dx="663" dy="742" grid="1" gridSize="10" guides="1" tooltips="1" connect="1" arrows="1" fold="1" page="1" pageScale="1" pageWidth="850" pageHeight="1100" math="0" shadow="0">
      <root>
        <mxCell id="0" />
        <mxCell id="1" parent="0" />
        <mxCell id="kKX7id0r8IFnR-2gYmhC-2" value="Microcontroller" style="whiteSpace=wrap;html=1;aspect=fixed;" vertex="1" parent="1">
          <mxGeometry x="420" y="240" width="80" height="80" as="geometry" />
        </mxCell>
        <mxCell id="kKX7id0r8IFnR-2gYmhC-12" value="" style="edgeStyle=orthogonalEdgeStyle;rounded=0;orthogonalLoop=1;jettySize=auto;html=1;" edge="1" parent="1" source="kKX7id0r8IFnR-2gYmhC-5" target="kKX7id0r8IFnR-2gYmhC-2">
          <mxGeometry relative="1" as="geometry" />
        </mxCell>
        <mxCell id="kKX7id0r8IFnR-2gYmhC-5" value="Food Level Sensor" style="ellipse;whiteSpace=wrap;html=1;" vertex="1" parent="1">
          <mxGeometry x="400" y="120" width="120" height="80" as="geometry" />
        </mxCell>
        <mxCell id="kKX7id0r8IFnR-2gYmhC-13" value="" style="edgeStyle=orthogonalEdgeStyle;rounded=0;orthogonalLoop=1;jettySize=auto;html=1;" edge="1" parent="1" source="kKX7id0r8IFnR-2gYmhC-6" target="kKX7id0r8IFnR-2gYmhC-2">
          <mxGeometry relative="1" as="geometry" />
        </mxCell>
        <mxCell id="kKX7id0r8IFnR-2gYmhC-6" value="Food Weight Sensor" style="ellipse;whiteSpace=wrap;html=1;" vertex="1" parent="1">
          <mxGeometry x="400" y="360" width="120" height="80" as="geometry" />
        </mxCell>
        <mxCell id="kKX7id0r8IFnR-2gYmhC-7" value="Buzzer" style="ellipse;whiteSpace=wrap;html=1;aspect=fixed;" vertex="1" parent="1">
          <mxGeometry x="200" y="230" width="80" height="80" as="geometry" />
        </mxCell>
        <mxCell id="kKX7id0r8IFnR-2gYmhC-16" style="edgeStyle=orthogonalEdgeStyle;rounded=0;orthogonalLoop=1;jettySize=auto;html=1;entryX=0.983;entryY=0.619;entryDx=0;entryDy=0;entryPerimeter=0;" edge="1" parent="1" source="kKX7id0r8IFnR-2gYmhC-2" target="kKX7id0r8IFnR-2gYmhC-7">
          <mxGeometry relative="1" as="geometry" />
        </mxCell>
        <mxCell id="kKX7id0r8IFnR-2gYmhC-18" value="" style="edgeStyle=orthogonalEdgeStyle;rounded=0;orthogonalLoop=1;jettySize=auto;html=1;" edge="1" parent="1" target="kKX7id0r8IFnR-2gYmhC-2">
          <mxGeometry relative="1" as="geometry">
            <mxPoint x="540" y="280" as="sourcePoint" />
          </mxGeometry>
        </mxCell>
        <mxCell id="kKX7id0r8IFnR-2gYmhC-19" value="Real-Time Clock" style="rounded=0;whiteSpace=wrap;html=1;" vertex="1" parent="1">
          <mxGeometry x="540" y="250" width="120" height="60" as="geometry" />
        </mxCell>
        <mxCell id="kKX7id0r8IFnR-2gYmhC-20" value="Servo Motor" style="ellipse;whiteSpace=wrap;html=1;" vertex="1" parent="1">
          <mxGeometry x="230" y="340" width="120" height="80" as="geometry" />
        </mxCell>
        <mxCell id="kKX7id0r8IFnR-2gYmhC-22" value="" style="endArrow=classic;html=1;rounded=0;entryX=1;entryY=0.5;entryDx=0;entryDy=0;exitX=0;exitY=0.75;exitDx=0;exitDy=0;" edge="1" parent="1" source="kKX7id0r8IFnR-2gYmhC-2" target="kKX7id0r8IFnR-2gYmhC-20">
          <mxGeometry width="50" height="50" relative="1" as="geometry">
            <mxPoint x="390" y="370" as="sourcePoint" />
            <mxPoint x="440" y="320" as="targetPoint" />
          </mxGeometry>
        </mxCell>
      </root>
    </mxGraphModel>
  </diagram>
</mxfile>
